<svg xmlns="http://www.w3.org/2000/svg" viewBox="0 0 1122 900">
  <defs>
    <style>
      .title-main { font: bold 20px 'Segoe UI', Arial, sans-serif; fill: #1F2937; }
      .section-title { font: bold 11px 'Segoe UI', Arial, sans-serif; fill: #ffffff; letter-spacing: 1px; }
      .layer-title { font: bold 12px 'Segoe UI', Arial, sans-serif; fill: #1F2937; }
      .layer-sub { font: 10px 'Segoe UI', Arial, sans-serif; fill: #6B7280; }
      .body { font: 10px 'Segoe UI', Arial, sans-serif; fill: #374151; }
      .body-bold { font: bold 10px 'Segoe UI', Arial, sans-serif; fill: #374151; }
      .mono { font: 10px 'Courier New', monospace; fill: #E10A0A; }
      .mono-green { font: 10px 'Courier New', monospace; fill: #059669; }
      .mono-purple { font: 10px 'Courier New', monospace; fill: #7C3AED; }
      .step-label { font: bold 9px 'Segoe UI', Arial, sans-serif; fill: #1F2937; }
      .step-sub { font: 9px 'Segoe UI', Arial, sans-serif; fill: #6B7280; }
      .col-title { font: bold 11px 'Segoe UI', Arial, sans-serif; fill: #1F2937; }
    </style>
    <marker id="arr" markerWidth="8" markerHeight="6" refX="7" refY="3" orient="auto">
      <polygon points="0 0, 8 3, 0 6" fill="#6B7280"/>
    </marker>
    <marker id="arr-ret" markerWidth="8" markerHeight="6" refX="7" refY="3" orient="auto">
      <polygon points="0 0, 8 3, 0 6" fill="#94A3B8"/>
    </marker>
  </defs>

  <!-- Page background -->
  <rect width="1122" height="794" fill="white"/>

  <!-- ═══════════ HEADER ═══════════ -->
  <rect x="20" y="14" width="1082" height="32" rx="6" fill="#1F2937"/>
  <text x="561" y="35" text-anchor="middle" class="title-main" fill="white">JUNAI / CLAUDE CODE DEV ECOSYSTEM</text>
  <text x="1090" y="35" text-anchor="end" class="layer-sub" fill="#9CA3AF">agent-sandbox · 2026-06-08</text>

  <!-- ═══════════ SECTION 1 — 4 LAYERS ═══════════ -->
  <rect x="20" y="54" width="1082" height="16" rx="4" fill="#374151"/>
  <text x="30" y="66" class="section-title">① 4 LAYERS</text>

  <!-- Layer cards: 4 equal columns, x: 20,290,560,830, width 262 each -->
  <!-- POOL -->
  <rect x="20" y="72" width="262" height="120" rx="6" fill="#ECFDF5" stroke="#10B981" stroke-width="1.5"/>
  <rect x="20" y="72" width="262" height="22" rx="6" fill="#10B981"/>
  <rect x="20" y="84" width="262" height="10" fill="#10B981"/>
  <text x="151" y="88" text-anchor="middle" class="layer-title" fill="white">POOL</text>
  <text x="30" y="108" class="layer-sub">agent-sandbox (local only)</text>
  <text x="30" y="122" class="body">skills/ · agents/ · commands/</text>
  <text x="30" y="135" class="body">instructions/ · prompts/</text>
  <text x="30" y="150" class="body-bold">Publish:</text>
  <text x="75" y="150" class="mono-green">junai-push</text>
  <text x="30" y="163" class="body">→ GitHub + PyPI + VS Code + Claude plugin</text>
  <text x="30" y="180" class="body">MCP v0.2.9 · VS Code v1.2.20</text>

  <!-- HARNESS -->
  <rect x="290" y="72" width="262" height="120" rx="6" fill="#EEF2FF" stroke="#6366F1" stroke-width="1.5"/>
  <rect x="290" y="72" width="262" height="22" rx="6" fill="#6366F1"/>
  <rect x="290" y="84" width="262" height="10" fill="#6366F1"/>
  <text x="421" y="88" text-anchor="middle" class="layer-title" fill="white">HARNESS</text>
  <text x="300" y="108" class="layer-sub">deployed per-project</text>
  <text x="300" y="122" class="body">CLAUDE.md hierarchy</text>
  <text x="300" y="135" class="body">.claude/ agents + commands</text>
  <text x="300" y="148" class="body">AGENTS.md · relay.md</text>
  <text x="300" y="163" class="body-bold">Deploy:</text>
  <text x="345" y="163" class="mono">/setup-project-ai</text>
  <text x="300" y="180" class="body">(run once per new project)</text>

  <!-- PLATFORM -->
  <rect x="560" y="72" width="262" height="120" rx="6" fill="#FFF7ED" stroke="#F97316" stroke-width="1.5"/>
  <rect x="560" y="72" width="262" height="22" rx="6" fill="#F97316"/>
  <rect x="560" y="84" width="262" height="10" fill="#F97316"/>
  <text x="691" y="88" text-anchor="middle" class="layer-title" fill="white">PLATFORM</text>
  <text x="570" y="108" class="layer-sub">platform-infra</text>
  <text x="570" y="122" class="mono-green">new-vmie-project.ps1</text>
  <text x="570" y="136" class="body">→ scaffolds FastAPI + React</text>
  <text x="570" y="149" class="body">  + MSSQL + Alembic + NSSM</text>
  <text x="570" y="162" class="body">→ auto-runs setup_project_ai</text>
  <text x="570" y="175" class="body">→ harness from day 1</text>
  <text x="570" y="188" class="body">(no manual wiring ever)</text>

  <!-- PROJECTS -->
  <rect x="830" y="72" width="272" height="120" rx="6" fill="#F0F9FF" stroke="#0EA5E9" stroke-width="1.5"/>
  <rect x="830" y="72" width="272" height="22" rx="6" fill="#0EA5E9"/>
  <rect x="830" y="84" width="272" height="10" fill="#0EA5E9"/>
  <text x="966" y="88" text-anchor="middle" class="layer-title" fill="white">PROJECTS</text>
  <text x="840" y="108" class="layer-sub">the four apps</text>
  <text x="840" y="122" class="body">appointment-assist · nps-lens</text>
  <text x="840" y="135" class="body">rev-sight · app-sight</text>
  <text x="840" y="150" class="body-bold">Stack:</text>
  <text x="875" y="150" class="body">FastAPI + React/Vite</text>
  <text x="840" y="163" class="body">shadcn + MSSQL + Alembic</text>
  <text x="840" y="176" class="body">Gitea CI + NSSM (dev → prod)</text>

  <!-- Layer arrows -->
  <line x1="282" y1="132" x2="288" y2="132" stroke="#6B7280" stroke-width="1.5" marker-end="url(#arr)"/>
  <line x1="552" y1="132" x2="558" y2="132" stroke="#6B7280" stroke-width="1.5" marker-end="url(#arr)"/>
  <line x1="822" y1="132" x2="828" y2="132" stroke="#6B7280" stroke-width="1.5" marker-end="url(#arr)"/>

  <!-- ═══════════ SECTION 2 — DAILY WORKFLOW ═══════════ -->
  <rect x="20" y="202" width="1082" height="16" rx="4" fill="#374151"/>
  <text x="30" y="214" class="section-title">② DAILY WORKFLOW</text>

  <!-- Workflow boxes: 7 steps across -->
  <!-- Step width: ~145px, gap: 12px, starts at x=20 -->
  <!-- START -->
  <rect x="20" y="220" width="138" height="56" rx="6" fill="#F8FAFC" stroke="#CBD5E1" stroke-width="1.5"/>
  <rect x="20" y="220" width="138" height="18" rx="6" fill="#64748B"/>
  <rect x="20" y="228" width="138" height="10" fill="#64748B"/>
  <text x="89" y="233" text-anchor="middle" class="step-label" fill="white">START</text>
  <text x="89" y="250" text-anchor="middle" class="step-sub">Read relay.md</text>
  <text x="89" y="263" text-anchor="middle" class="step-sub">(auto hook)</text>

  <line x1="158" y1="248" x2="170" y2="248" stroke="#6B7280" stroke-width="1.5" marker-end="url(#arr)"/>

  <!-- PLAN -->
  <rect x="170" y="220" width="138" height="56" rx="6" fill="#EEF2FF" stroke="#6366F1" stroke-width="1.5"/>
  <rect x="170" y="220" width="138" height="18" rx="6" fill="#6366F1"/>
  <rect x="170" y="228" width="138" height="10" fill="#6366F1"/>
  <text x="239" y="233" text-anchor="middle" class="step-label" fill="white">PLAN</text>
  <text x="239" y="250" text-anchor="middle" class="mono">/feature-plan</text>
  <text x="239" y="263" text-anchor="middle" class="step-sub">→ plan file</text>

  <line x1="308" y1="248" x2="320" y2="248" stroke="#6B7280" stroke-width="1.5" marker-end="url(#arr)"/>

  <!-- VALIDATE -->
  <rect x="320" y="220" width="138" height="56" rx="6" fill="#FEF3C7" stroke="#F59E0B" stroke-width="1.5"/>
  <rect x="320" y="220" width="138" height="18" rx="6" fill="#F59E0B"/>
  <rect x="320" y="228" width="138" height="10" fill="#F59E0B"/>
  <text x="389" y="233" text-anchor="middle" class="step-label" fill="white">VALIDATE</text>
  <text x="389" y="250" text-anchor="middle" class="mono-purple">preflight</text>
  <text x="389" y="263" text-anchor="middle" class="step-sub">PASS / FAIL</text>

  <line x1="458" y1="248" x2="470" y2="248" stroke="#6B7280" stroke-width="1.5" marker-end="url(#arr)"/>

  <!-- IMPLEMENT -->
  <rect x="470" y="220" width="138" height="56" rx="6" fill="#ECFDF5" stroke="#10B981" stroke-width="1.5"/>
  <rect x="470" y="220" width="138" height="18" rx="6" fill="#10B981"/>
  <rect x="470" y="228" width="138" height="10" fill="#10B981"/>
  <text x="539" y="233" text-anchor="middle" class="step-label" fill="white">IMPLEMENT</text>
  <text x="539" y="250" text-anchor="middle" class="mono">/tdd</text>
  <text x="539" y="263" text-anchor="middle" class="step-sub">RED→GREEN→REFACTOR</text>

  <line x1="608" y1="248" x2="620" y2="248" stroke="#6B7280" stroke-width="1.5" marker-end="url(#arr)"/>

  <!-- REVIEW -->
  <rect x="620" y="220" width="138" height="56" rx="6" fill="#F0F9FF" stroke="#0EA5E9" stroke-width="1.5"/>
  <rect x="620" y="220" width="138" height="18" rx="6" fill="#0EA5E9"/>
  <rect x="620" y="228" width="138" height="10" fill="#0EA5E9"/>
  <text x="689" y="233" text-anchor="middle" class="step-label" fill="white">REVIEW</text>
  <text x="689" y="250" text-anchor="middle" class="mono-purple">code-reviewer</text>
  <text x="689" y="263" text-anchor="middle" class="step-sub">subagent</text>

  <line x1="758" y1="248" x2="770" y2="248" stroke="#6B7280" stroke-width="1.5" marker-end="url(#arr)"/>

  <!-- SHIP -->
  <rect x="770" y="220" width="138" height="56" rx="6" fill="#FFF7ED" stroke="#F97316" stroke-width="1.5"/>
  <rect x="770" y="220" width="138" height="18" rx="6" fill="#F97316"/>
  <rect x="770" y="228" width="138" height="10" fill="#F97316"/>
  <text x="839" y="233" text-anchor="middle" class="step-label" fill="white">SHIP</text>
  <text x="839" y="250" text-anchor="middle" class="mono">/ship</text>
  <text x="839" y="263" text-anchor="middle" class="step-sub">gates → CI → prod</text>

  <line x1="908" y1="248" x2="920" y2="248" stroke="#6B7280" stroke-width="1.5" marker-end="url(#arr)"/>

  <!-- CLOSE -->
  <rect x="920" y="220" width="182" height="56" rx="6" fill="#F8FAFC" stroke="#64748B" stroke-width="1.5"/>
  <rect x="920" y="220" width="182" height="18" rx="6" fill="#475569"/>
  <rect x="920" y="228" width="182" height="10" fill="#475569"/>
  <text x="1011" y="233" text-anchor="middle" class="step-label" fill="white">CLOSE</text>
  <text x="1011" y="250" text-anchor="middle" class="mono">/handoff</text>
  <text x="1011" y="263" text-anchor="middle" class="step-sub">relay.md + nuggets</text>

  <!-- ═══════════ SECTION 3 — COMMANDS + SUBAGENTS ═══════════ -->
  <rect x="20" y="286" width="1082" height="16" rx="4" fill="#374151"/>
  <text x="30" y="298" class="section-title">③ COMMANDS &amp; SUBAGENTS</text>

  <!-- Commands column -->
  <rect x="20" y="304" width="530" height="196" rx="6" fill="#F8FAFC" stroke="#E5E7EB" stroke-width="1.5"/>
  <text x="30" y="320" class="col-title">KEY COMMANDS</text>
  <line x1="30" y1="324" x2="540" y2="324" stroke="#E5E7EB" stroke-width="1"/>

  <text x="36" y="340" class="mono">/feature-plan</text>
  <text x="160" y="340" class="body">— plan a feature</text>
  <text x="36" y="356" class="mono">/tdd</text>
  <text x="160" y="356" class="body">— red → green → refactor</text>
  <text x="36" y="372" class="mono">/prd</text>
  <text x="160" y="372" class="body">— product requirements doc</text>
  <text x="36" y="388" class="mono">/ship</text>
  <text x="160" y="388" class="body">— commit → CI → prod</text>
  <text x="36" y="404" class="mono">/handoff</text>
  <text x="160" y="404" class="body">— end-session relay</text>
  <text x="36" y="420" class="mono">/agent-log</text>
  <text x="160" y="420" class="body">— view subagent run history</text>
  <text x="36" y="436" class="mono">/setup-project-ai</text>
  <text x="160" y="436" class="body">— deploy harness to a new repo</text>
  <text x="36" y="452" class="mono">/compact</text>
  <text x="160" y="452" class="body">— compress context when filling up</text>
  <text x="36" y="468" class="mono">/plugin install junai@junai</text>
  <text x="240" y="468" class="body">— install knowledge plugin</text>
  <text x="36" y="486" class="body" fill="#6B7280">Commands run inside Claude Code chat — not in terminal</text>

  <!-- Subagents column -->
  <rect x="560" y="304" width="542" height="230" rx="6" fill="#F8FAFC" stroke="#E5E7EB" stroke-width="1.5"/>
  <text x="570" y="320" class="col-title">KEY SUBAGENTS</text>
  <line x1="570" y1="324" x2="1092" y2="324" stroke="#E5E7EB" stroke-width="1"/>

  <text x="576" y="340" class="mono-purple">preflight</text>
  <text x="680" y="340" class="body">— plan validation (pre-code)</text>
  <text x="576" y="356" class="mono-purple">code-reviewer</text>
  <text x="680" y="356" class="body">— diff review (post-code)</text>
  <text x="576" y="372" class="mono-purple">tester</text>
  <text x="680" y="372" class="body">— test coverage check</text>
  <text x="576" y="388" class="mono-purple">security-analyst</text>
  <text x="680" y="388" class="body">— security scan (Opus model)</text>
  <text x="576" y="404" class="mono-purple">debug</text>
  <text x="680" y="404" class="body">— root cause analysis</text>
  <text x="576" y="420" class="mono-purple">anchor</text>
  <text x="680" y="420" class="body">— evidence-first verify</text>
  <text x="576" y="436" class="mono-purple">sql-expert</text>
  <text x="680" y="436" class="body">— query review + optimisation</text>
  <text x="576" y="452" class="mono-purple">data-engineer</text>
  <text x="680" y="452" class="body">— pipeline review</text>
  <text x="576" y="468" class="mono-purple">codebase-audit</text>
  <text x="680" y="468" class="body">— cross-file pattern scan</text>
  <text x="576" y="484" class="mono-purple">knowledge-transfer</text>
  <text x="680" y="484" class="body">— write learnings into CLAUDE.md / runbooks</text>
  <text x="576" y="500" class="mono-purple">ui-design-reviewer</text>
  <text x="680" y="500" class="body">— screenshot → aesthetics/UX/a11y critique</text>
  <text x="576" y="516" class="mono-purple">claude-md-curator</text>
  <text x="680" y="516" class="body">— prune/consolidate CLAUDE.md files (periodic)</text>
  <text x="576" y="532" class="body" fill="#6B7280">~109k subagent tokens → ~2k returned to main thread (context firewall)</text>

  <!-- ═══════════ SECTION 4 — PLUGIN / CONTINUITY / DEPLOY ═══════════ -->
  <rect x="20" y="544" width="1082" height="16" rx="4" fill="#374151"/>
  <text x="30" y="556" class="section-title">④ PLUGIN · SESSION CONTINUITY · DEPLOY PIPELINE</text>

  <!-- Plugin -->
  <rect x="20" y="562" width="348" height="230" rx="6" fill="#ECFDF5" stroke="#10B981" stroke-width="1.5"/>
  <text x="30" y="582" class="col-title" fill="#065F46">PLUGIN — install once, use everywhere</text>
  <line x1="30" y1="586" x2="358" y2="586" stroke="#10B981" stroke-width="1"/>
  <text x="30" y="602" class="body-bold">Install (run inside Claude Code chat):</text>
  <text x="30" y="618" class="mono">/plugin marketplace add saajunaid/junai</text>
  <text x="30" y="634" class="mono">/plugin install junai@junai</text>
  <line x1="30" y1="644" x2="358" y2="644" stroke="#D1FAE5" stroke-width="1"/>
  <text x="30" y="660" class="body-bold">Plugin</text>
  <text x="66" y="660" class="body">= skills + subagents (global, all sessions)</text>
  <text x="30" y="676" class="body-bold">Harness</text>
  <text x="72" y="676" class="body">= ports, routes, DB stack (per-project)</text>
  <line x1="30" y1="686" x2="358" y2="686" stroke="#D1FAE5" stroke-width="1"/>
  <text x="30" y="702" class="body-bold">Update:</text>
  <text x="72" y="702" class="mono-green">junai-push</text>
  <text x="150" y="702" class="body">from agent-sandbox</text>
  <text x="30" y="718" class="body">→ auto-publishes pool + MCP + VS Code ext</text>
  <line x1="30" y1="728" x2="358" y2="728" stroke="#D1FAE5" stroke-width="1"/>
  <text x="30" y="744" class="body-bold">VS Code extension</text>
  <text x="30" y="758" class="body">(junai-labs.junai) is separate — unaffected</text>
  <text x="30" y="772" class="body">by plugin changes; manages pool for IDE sidebar</text>

  <!-- Session Continuity -->
  <rect x="378" y="562" width="348" height="230" rx="6" fill="#EEF2FF" stroke="#6366F1" stroke-width="1.5"/>
  <text x="388" y="582" class="col-title" fill="#3730A3">SESSION CONTINUITY</text>
  <line x1="388" y1="586" x2="716" y2="586" stroke="#6366F1" stroke-width="1"/>
  <text x="388" y="602" class="mono-green">relay.md</text>
  <text x="470" y="602" class="body">→ done / next / resume prompt</text>
  <text x="388" y="618" class="mono-green">MEMORY.md</text>
  <text x="470" y="618" class="body">→ user profile across sessions</text>
  <text x="388" y="634" class="mono-green">agent-log.jsonl</text>
  <text x="470" y="634" class="body">→ subagent verdict history (feeds eval)</text>
  <text x="388" y="650" class="mono-green">plan files</text>
  <text x="470" y="650" class="body">→ survive session death</text>
  <line x1="388" y1="660" x2="716" y2="660" stroke="#C7D2FE" stroke-width="1"/>
  <text x="388" y="676" class="body-bold">Resume:</text>
  <text x="444" y="676" class="body">paste resume prompt from relay.md</text>
  <text x="388" y="692" class="body">(SessionStart hook auto-loads it)</text>
  <line x1="388" y1="702" x2="716" y2="702" stroke="#C7D2FE" stroke-width="1"/>
  <text x="388" y="718" class="body-bold">Context filling up?</text>
  <text x="388" y="732" class="body">→ /compact → update relay.md</text>
  <text x="388" y="748" class="body-bold">Session dying?</text>
  <text x="388" y="762" class="body">→ /handoff → resume prompt in next session</text>
  <text x="388" y="778" class="body-bold">Plan wrong?</text>
  <text x="388" y="784" class="body">→ run preflight subagent against it first</text>

  <!-- Gitea Deploy -->
  <rect x="736" y="562" width="366" height="230" rx="6" fill="#FFF7ED" stroke="#F97316" stroke-width="1.5"/>
  <text x="746" y="582" class="col-title" fill="#9A3412">GITEA DEPLOY PIPELINE (per app)</text>
  <line x1="746" y1="586" x2="1092" y2="586" stroke="#F97316" stroke-width="1"/>

  <!-- Pipeline flow -->
  <rect x="746" y="592" width="100" height="24" rx="4" fill="white" stroke="#F97316" stroke-width="1"/>
  <text x="796" y="608" text-anchor="middle" class="step-label">git push</text>
  <line x1="846" y1="604" x2="858" y2="604" stroke="#F97316" stroke-width="1.5" marker-end="url(#arr)"/>
  <rect x="858" y="592" width="100" height="24" rx="4" fill="white" stroke="#F97316" stroke-width="1"/>
  <text x="908" y="608" text-anchor="middle" class="step-label">ci.yml</text>
  <line x1="958" y1="604" x2="970" y2="604" stroke="#F97316" stroke-width="1.5" marker-end="url(#arr)"/>
  <rect x="970" y="592" width="112" height="24" rx="4" fill="white" stroke="#F97316" stroke-width="1"/>
  <text x="1026" y="608" text-anchor="middle" class="step-label">Gitea runner</text>

  <text x="746" y="634" class="body-bold">Stages:</text>
  <text x="800" y="634" class="body">lint_and_test → frontend_checks</text>
  <text x="800" y="648" class="body">→ deploy_prod → release_metadata → notify</text>
  <line x1="746" y1="658" x2="1092" y2="658" stroke="#FED7AA" stroke-width="1"/>
  <text x="746" y="674" class="body-bold">Prod:</text>
  <text x="778" y="674" class="body">Windows Server · NSSM · CalVer tags</text>
  <line x1="746" y1="684" x2="1092" y2="684" stroke="#FED7AA" stroke-width="1"/>
  <text x="746" y="700" class="body-bold">Orchestrator:</text>
  <text x="820" y="700" class="mono">/ship</text>
  <text x="858" y="700" class="body">handles the full loop</text>
  <text x="746" y="714" class="body">preflight gates → commit → push → monitor</text>
  <text x="746" y="728" class="body">→ prod validation → report</text>
  <line x1="746" y1="738" x2="1092" y2="738" stroke="#FED7AA" stroke-width="1"/>
  <text x="746" y="754" class="body">AI-CI (implement-fix.yml): pending Claude headless</text>
  <text x="746" y="768" class="body">CLI spike on Gitea runner (next phase)</text>

  <!-- ═══════════ SECTION 5 — MAINTENANCE ═══════════ -->
  <rect x="20" y="802" width="1082" height="16" rx="4" fill="#475569"/>
  <text x="30" y="814" class="section-title">⑤ MAINTENANCE (periodic — not daily)</text>

  <!-- Maintenance 3 columns -->
  <!-- CLAUDE.md curation -->
  <rect x="20" y="820" width="348" height="54" rx="6" fill="#F8FAFC" stroke="#CBD5E1" stroke-width="1.5"/>
  <text x="30" y="836" class="body-bold">CLAUDE.md curation</text>
  <text x="30" y="850" class="body">When any CLAUDE.md exceeds ~80 lines, dispatch</text>
  <text x="30" y="864" class="mono-purple">claude-md-curator</text>
  <text x="152" y="864" class="body">→ proposes prune/move, you approve</text>

  <!-- Agent eval -->
  <rect x="378" y="820" width="348" height="54" rx="6" fill="#F8FAFC" stroke="#CBD5E1" stroke-width="1.5"/>
  <text x="388" y="836" class="body-bold">Agent eval (~30 min, triggered)</text>
  <text x="388" y="850" class="body">1. Read agent-log.jsonl — flag 0-run or &gt;60% FAIL agents</text>
  <text x="388" y="864" class="body">2. Run golden tasks in eval/tasks/&lt;agent&gt;/ · 3. New model? Bake-off</text>

  <!-- Pool refresh -->
  <rect x="736" y="820" width="366" height="54" rx="6" fill="#F8FAFC" stroke="#CBD5E1" stroke-width="1.5"/>
  <text x="746" y="836" class="body-bold">Pool refresh</text>
  <text x="746" y="850" class="body">When skills/agents change in agent-sandbox, run</text>
  <text x="746" y="864" class="mono-green">junai-push</text>
  <text x="800" y="864" class="body">to sync pool → GitHub → PyPI → VS Code → plugin</text>

  <!-- Footer -->
  <text x="561" y="892" text-anchor="middle" class="step-sub">agent-sandbox / .github/agent-docs/WORKFLOW-WALLCHART.svg · printed A4 landscape</text>
</svg>
